<svg xmlns="http://www.w3.org/2000/svg" viewBox="0 0 500 500"><g id="freepik--background-complete--inject-113"><path d="M429.75,42.86a20.75,20.75,0,1,0,21.3,20.2A20.76,20.76,0,0,0,429.75,42.86Zm.91,34.22a13.48,13.48,0,1,1,13.11-13.83A13.48,13.48,0,0,1,430.66,77.08Z" style="fill:#ebebeb"></path><polygon points="433.76 43.62 425.79 43.83 426.08 38.17 433.17 37.98 433.76 43.62" style="fill:#ebebeb"></polygon><polygon points="418.65 46.7 413.16 52.49 409.36 48.29 414.25 43.14 418.65 46.7" style="fill:#ebebeb"></polygon><polygon points="410.15 59.58 410.36 67.55 404.7 67.26 404.51 60.17 410.15 59.58" style="fill:#ebebeb"></polygon><polygon points="413.24 74.69 419.02 80.18 414.82 83.98 409.67 79.09 413.24 74.69" style="fill:#ebebeb"></polygon><polygon points="426.11 83.19 434.08 82.98 433.79 88.64 426.7 88.83 426.11 83.19" style="fill:#ebebeb"></polygon><polygon points="441.22 80.1 446.71 74.31 450.51 78.52 445.62 83.67 441.22 80.1" style="fill:#ebebeb"></polygon><polygon points="449.72 67.23 449.51 59.26 455.17 59.55 455.36 66.64 449.72 67.23" style="fill:#ebebeb"></polygon><polygon points="446.63 52.12 440.84 46.63 445.05 42.83 450.2 47.72 446.63 52.12" style="fill:#ebebeb"></polygon><path d="M211.14,304.84a20.76,20.76,0,1,0,21.29,20.21A20.76,20.76,0,0,0,211.14,304.84Zm.9,34.22a13.47,13.47,0,1,1,13.11-13.82A13.47,13.47,0,0,1,212,339.06Z" style="fill:#ebebeb"></path><polygon points="215.15 305.6 207.17 305.81 207.46 300.15 214.56 299.96 215.15 305.6" style="fill:#ebebeb"></polygon><polygon points="200.03 308.69 194.54 314.48 190.75 310.27 195.63 305.12 200.03 308.69" style="fill:#ebebeb"></polygon><polygon points="191.53 321.56 191.74 329.54 186.08 329.25 185.9 322.15 191.53 321.56" style="fill:#ebebeb"></polygon><polygon points="194.62 336.67 200.41 342.17 196.2 345.96 191.05 341.08 194.62 336.67" style="fill:#ebebeb"></polygon><polygon points="207.49 345.18 215.47 344.97 215.18 350.63 208.08 350.81 207.49 345.18" style="fill:#ebebeb"></polygon><polygon points="222.6 342.09 228.09 336.3 231.89 340.51 227 345.66 222.6 342.09" style="fill:#ebebeb"></polygon><polygon points="231.11 329.22 230.9 321.24 236.55 321.53 236.74 328.63 231.11 329.22" style="fill:#ebebeb"></polygon><polygon points="228.02 314.1 222.23 308.61 226.44 304.82 231.59 309.7 228.02 314.1" style="fill:#ebebeb"></polygon><path d="M99.09,196A44.77,44.77,0,1,0,145,239.56,44.76,44.76,0,0,0,99.09,196Zm2,73.81A29.07,29.07,0,1,1,129.32,240,29.06,29.06,0,0,1,101,269.8Z" style="fill:#ebebeb"></path><polygon points="107.74 197.63 90.53 198.08 91.16 185.87 106.46 185.47 107.74 197.63" style="fill:#ebebeb"></polygon><polygon points="75.14 204.29 63.29 216.78 55.11 207.7 65.64 196.59 75.14 204.29" style="fill:#ebebeb"></polygon><polygon points="56.8 232.05 57.25 249.26 45.05 248.63 44.64 233.32 56.8 232.05" style="fill:#ebebeb"></polygon><polygon points="63.46 264.65 75.95 276.49 66.87 284.68 55.77 274.14 63.46 264.65" style="fill:#ebebeb"></polygon><polygon points="91.22 282.99 108.43 282.53 107.8 294.74 92.49 295.14 91.22 282.99" style="fill:#ebebeb"></polygon><polygon points="123.82 276.32 135.67 263.84 143.85 272.91 133.31 284.02 123.82 276.32" style="fill:#ebebeb"></polygon><polygon points="142.16 248.56 141.71 231.36 153.91 231.99 154.31 247.29 142.16 248.56" style="fill:#ebebeb"></polygon><polygon points="135.5 215.97 123.01 204.12 132.09 195.93 143.19 206.47 135.5 215.97" style="fill:#ebebeb"></polygon><path d="M339.39,359.59V475.06h69.8V359.59Zm63.46,72.86H345.73V402.39h57.12Zm0-37.22H345.73V365.17h57.12Z" style="fill:#dbdbdb"></path><rect x="409.19" y="359.59" width="31.56" height="115.47" style="fill:#ebebeb"></rect><rect x="345.73" y="365.17" width="13.58" height="30.06" style="fill:#ebebeb"></rect><path d="M403.11,468.06H345.83V438.9h57.28Zm-56.78-.5h56.28V439.4H346.33Z" style="fill:#ebebeb"></path><rect x="368.83" y="447.22" width="11.28" height="4.12" style="fill:#ebebeb"></rect><rect x="345.73" y="402.39" width="13.58" height="30.06" style="fill:#ebebeb"></rect><rect x="376.41" y="413.81" width="27.71" height="9.55" transform="translate(808.85 28.32) rotate(90)" style="fill:#a6a6a6"></rect><rect x="387.28" y="420.23" width="5.98" height="9.55" transform="translate(815.27 34.74) rotate(90)" style="fill:#dbdbdb"></rect><rect x="388.49" y="410.66" width="3.55" height="9.55" transform="translate(805.7 25.17) rotate(90)" style="fill:#dbdbdb"></rect><rect x="362.38" y="372.03" width="24.14" height="23.19" style="fill:#ebebeb"></rect><rect x="386.52" y="372.03" width="9.17" height="23.19" style="fill:#c7c7c7"></rect><polygon points="362.38 383.63 386.52 383.63 367.67 384.23 362.38 383.63" style="fill:#c7c7c7"></polygon><polygon points="386.52 392.43 362.38 392.43 381.23 393.02 386.52 392.43" style="fill:#c7c7c7"></polygon><polygon points="362.38 377.15 377.67 377.15 364.08 377.64 362.38 377.15" style="fill:#c7c7c7"></polygon><polygon points="386.52 389.01 371.23 389.01 384.82 389.5 386.52 389.01" style="fill:#c7c7c7"></polygon><polygon points="368.17 374.57 385.42 374.57 382.54 374.86 368.17 374.57" style="fill:#c7c7c7"></polygon><polygon points="364.73 386.12 381.97 386.12 379.1 386.41 364.73 386.12" style="fill:#c7c7c7"></polygon><polygon points="375.33 379.36 386.52 379.36 388.52 380.14 375.33 379.36" style="fill:#ebebeb"></polygon><polygon points="359.3 379.36 370.49 379.36 372.49 380.14 359.3 379.36" style="fill:#ebebeb"></polygon><polygon points="373.66 389.78 362.47 389.78 360.47 390.56 373.66 389.78" style="fill:#ebebeb"></polygon><polygon points="386.52 387.13 395.5 387.13 397.5 387.91 386.52 387.13" style="fill:#c7c7c7"></polygon><polygon points="389.66 383.63 396.62 383.63 395.69 382.99 389.66 383.63" style="fill:#c7c7c7"></polygon><rect x="395.04" y="402.88" width="7.81" height="29.56" style="fill:#ebebeb"></rect><path d="M399,408.71a1.63,1.63,0,1,1,1.63-1.62A1.63,1.63,0,0,1,399,408.71Z" style="fill:#fff"></path><path d="M399,408a.93.93,0,1,1,.93-.93A.93.93,0,0,1,399,408Z" style="fill:#a6a6a6"></path><rect x="395.35" y="420.28" width="7.19" height="7.81" transform="translate(823.14 25.24) rotate(90)" style="fill:#fff"></rect><rect x="355.93" y="426.34" width="29.56" height="6.15" style="fill:#c7c7c7"></rect><path d="M379.66,429.42a1.63,1.63,0,1,1,1.62,1.62A1.63,1.63,0,0,1,379.66,429.42Z" style="fill:#fff"></path><path d="M380.35,429.42a.93.93,0,1,1,.93.93A.93.93,0,0,1,380.35,429.42Z" style="fill:#a6a6a6"></path><rect x="360.58" y="426.34" width="7.19" height="6.15" transform="translate(728.36 858.83) rotate(180)" style="fill:#fff"></rect><rect x="215.34" y="87.61" width="229.84" height="173.04" transform="matrix(0.15, -0.99, 0.99, 0.15, 108.13, 474.22)" style="fill:#ebebeb"></rect><g style="opacity:0.1"><rect x="215.34" y="87.61" width="229.84" height="173.04" transform="matrix(0.15, -0.99, 0.99, 0.15, 108.13, 474.22)" style="fill:#020100"></rect></g><rect x="210.69" y="86.9" width="229.84" height="173.04" transform="translate(104.89 469.02) rotate(-81.29)" style="fill:#ebebeb"></rect><rect x="223.88" y="96.06" width="207.08" height="152.76" transform="translate(111.19 472.74) rotate(-82.02)" style="fill:#ebebeb"></rect><rect x="221.55" y="95.7" width="207.08" height="152.76" transform="translate(99.44 462.56) rotate(-80.05)" style="fill:#dbdbdb"></rect><rect x="221.55" y="95.7" width="207.08" height="152.76" transform="translate(105.76 467.36) rotate(-81.29)" style="fill:#fff"></rect><path d="M290.06,127.19c-4-.48-11.65-1.45-15.65-2,.6-4.58,1.61-11,2.27-15.62l.07-.49.5.08c4.64.76,11,1.7,15.58,2.51-.68,4-2,11.57-2.77,15.52Zm0,0c.45-3.81,1.43-11.47,1.95-15.27l.32.44c-4.41-.6-10.76-1.56-15.23-2.22l.57-.41c-.72,4.48-1.7,10.78-2.45,15.19l-.32-.44c3.78.65,11.38,2,15.16,2.71Z" style="fill:#c7c7c7"></path><path d="M300.07,115.82A283.21,283.21,0,0,1,333.61,121a279.15,279.15,0,0,1-33.54-5.14Z" style="fill:#c7c7c7"></path><path d="M299.51,119.49c28.7,3.72,60.5,8.61,89,13.63-28.73-3.74-60.53-8.59-89-13.63Z" style="fill:#c7c7c7"></path><path d="M277.25,116.64c.49.55.95,1.12,1.4,1.7s.89,1.16,1.33,1.74c.87,1.17,1.7,2.36,2.51,3.56l-1.76-.15a69.79,69.79,0,0,1,6-7.59q1.62-1.79,3.41-3.45a36.35,36.35,0,0,1,3.8-3.13,36.53,36.53,0,0,1-2.4,4.3c-.87,1.37-1.8,2.69-2.78,4a71,71,0,0,1-6.39,7.27L281.23,126l-.61-1.29c-.62-1.31-1.23-2.63-1.8-4-.27-.68-.56-1.34-.82-2S277.48,117.34,277.25,116.64Z" style="fill:#263238"></path><path d="M285.69,155.69c-4-.48-11.65-1.45-15.64-2,.59-4.58,1.61-11,2.26-15.62l.08-.49.49.08c4.64.76,11,1.7,15.58,2.51-.67,4-2,11.57-2.77,15.52Zm0,0c.45-3.81,1.44-11.47,1.95-15.27l.32.44c-4.41-.6-10.76-1.56-15.23-2.22l.57-.41c-.71,4.48-1.69,10.78-2.44,15.19l-.32-.44c3.77.65,11.38,2,15.15,2.71Z" style="fill:#c7c7c7"></path><path d="M295.7,144.32a283.69,283.69,0,0,1,33.55,5.14,279.62,279.62,0,0,1-33.55-5.14Z" style="fill:#c7c7c7"></path><path d="M295.14,148c28.7,3.72,60.51,8.61,89,13.63-28.73-3.74-60.52-8.59-89-13.63Z" style="fill:#c7c7c7"></path><path d="M272.88,145.14c.49.55.95,1.12,1.41,1.7s.88,1.16,1.33,1.74c.87,1.17,1.69,2.36,2.5,3.56l-1.76-.15a71,71,0,0,1,6-7.59c1.09-1.19,2.22-2.34,3.41-3.45a36.35,36.35,0,0,1,3.8-3.13,36.47,36.47,0,0,1-2.39,4.3c-.88,1.37-1.81,2.69-2.79,4a70.92,70.92,0,0,1-6.38,7.27l-1.15,1.13-.62-1.29c-.62-1.31-1.23-2.63-1.79-4-.28-.68-.57-1.34-.83-2S273.11,145.84,272.88,145.14Z" style="fill:#263238"></path><path d="M291.34,172.82A283.52,283.52,0,0,1,324.88,178a279.15,279.15,0,0,1-33.54-5.14Z" style="fill:#c7c7c7"></path><path d="M290.77,176.49c28.71,3.72,60.51,8.61,89,13.63-28.72-3.74-60.52-8.59-89-13.63Z" style="fill:#c7c7c7"></path><path d="M281.34,184.12c-4-.48-11.65-1.46-15.65-2,.6-4.57,1.61-11,2.27-15.61l.07-.5.5.08c4.64.77,11,1.7,15.58,2.51-.68,4-2,11.57-2.77,15.53Zm0,0c.45-3.82,1.43-11.47,2-15.28l.32.44c-4.41-.6-10.76-1.56-15.23-2.21l.57-.42c-.72,4.48-1.7,10.78-2.45,15.19l-.32-.43c3.78.64,11.38,2,15.16,2.71Z" style="fill:#c7c7c7"></path><path d="M268.53,173.56c.49.56,1,1.13,1.4,1.7s.89,1.16,1.33,1.74c.87,1.17,1.7,2.36,2.51,3.57l-1.76-.16a68.73,68.73,0,0,1,6-7.58q1.62-1.8,3.41-3.46a35.05,35.05,0,0,1,3.8-3.12,38.2,38.2,0,0,1-2.4,4.3c-.87,1.37-1.81,2.69-2.78,4a70,70,0,0,1-6.39,7.27l-1.15,1.13-.61-1.29c-.62-1.31-1.23-2.63-1.8-4-.27-.67-.56-1.34-.82-2S268.76,174.26,268.53,173.56Z" style="fill:#263238"></path><path d="M277,212.69c-4-.48-11.65-1.45-15.64-2,.59-4.58,1.6-11,2.26-15.62l.08-.49.49.08c4.64.76,11,1.7,15.58,2.51-.68,4-2,11.57-2.77,15.52Zm0,0c.45-3.81,1.43-11.47,2-15.27l.32.44c-4.41-.6-10.76-1.56-15.23-2.22l.57-.41c-.71,4.48-1.7,10.78-2.45,15.19l-.32-.44c3.78.65,11.39,2,15.16,2.71Z" style="fill:#c7c7c7"></path><path d="M287,201.32a283.69,283.69,0,0,1,33.55,5.14A279,279,0,0,1,287,201.32Z" style="fill:#c7c7c7"></path><path d="M286.41,205c28.7,3.72,60.5,8.61,89,13.64-28.73-3.75-60.52-8.6-89-13.64Z" style="fill:#c7c7c7"></path><path d="M272.59,241.19c-4-.48-11.65-1.45-15.64-2,.59-4.58,1.61-11,2.27-15.62l.07-.49.5.08c4.63.76,11,1.7,15.58,2.51-.68,4-2,11.57-2.78,15.52Zm0,0c.45-3.81,1.44-11.47,2-15.27l.32.44c-4.41-.6-10.76-1.56-15.23-2.22l.57-.41c-.71,4.48-1.69,10.78-2.44,15.19l-.32-.44c3.78.65,11.38,2,15.15,2.71Z" style="fill:#c7c7c7"></path><path d="M282.6,229.82A283.37,283.37,0,0,1,316.15,235a279.62,279.62,0,0,1-33.55-5.14Z" style="fill:#c7c7c7"></path><path d="M282,233.49c28.7,3.72,60.51,8.61,89,13.64-28.72-3.75-60.52-8.6-89-13.64Z" style="fill:#c7c7c7"></path><path d="M315.2,98.58a213.13,213.13,0,0,1,41.33,6.33,211.5,211.5,0,0,1-41.33-6.33Z" style="fill:#c7c7c7"></path><path d="M295.65,89.44q41.42,4.28,82.26,12.61-41.42-4.26-82.26-12.61Z" style="fill:#c7c7c7"></path><rect x="328.84" y="29.22" width="22.88" height="75.03" transform="translate(222.79 392.98) rotate(-81.29)" style="fill:#c7c7c7"></rect><path d="M366.58,46.54l-46-7-3.93,12,50.79,7.78Zm-24,5.42a2.75,2.75,0,1,1,3.13-2.3A2.75,2.75,0,0,1,342.54,52Z" style="fill:#c7c7c7"></path><polygon points="367.41 59.32 316.62 51.53 317.5 48.84 367.22 56.45 367.41 59.32" style="fill:#a6a6a6"></polygon></g><g id="freepik--Floor--inject-113"><path d="M48.36,475.06c129.18-.61,274.1-.62,403.28,0-129.18.62-274.1.61-403.28,0Z" style="fill:#263238"></path></g><g id="freepik--character-1--inject-113"><path d="M237.2,474.62c-3,.92-89.64-.95-92.8-3.06-1.22-.78,6.2-82.88,6.2-82.88l55,1.05-6.26,54.92s32,15.15,35.22,17.84S240.17,473.7,237.2,474.62Z" style="fill:#ad6359"></path><path d="M237.2,474.62c-1.48.46-24,.22-46.55-.4s-44.68-1.61-46.25-2.66c-.52-.33.52-15.25,1.87-32.34,1.86-23.26,4.33-50.54,4.33-50.54l55,1.05-6.26,54.92s32,15.15,35.22,17.84S240.17,473.7,237.2,474.62Z" style="fill:#ad6359"></path><path d="M237.2,474.62c-3,.92-89.64-.95-92.8-3.07-.39-.23-.5-8.57.88-19.43,15.72,2.64,71.82,11.25,76.18,8.68,3-1.79.36-4.59-2.14-6.47,7.16,3.57,13.84,7,15.22,8.16C237.76,465.17,240.17,473.7,237.2,474.62Z" style="fill:#263238"></path><path d="M190.65,474.22c-22.36-.62-44.68-1.61-46.25-2.66-.52-.33.52-15.25,1.87-32.34Z" style="opacity:0.1"></path><path d="M200.87,431.48l-54-.76S157.6,301.47,157.15,299c-.56-3.18-38.85-153.31-38.85-153.31h51.5s40.62,139.93,42.07,153.41C214.24,320.85,200.87,431.48,200.87,431.48Z" style="fill:#263238"></path><path d="M151.76,418.54c3.19-.23,6.41-.19,9.61-.24s6.4-.05,9.6,0c6.4.07,12.8.16,19.19.34,1.75.05,3.5.11,5.25.19s3.74.4,5.61.47a.12.12,0,0,1,0,.23c-1.57,0-3.14.25-4.72.29s-3.26.06-4.89.06q-4.8,0-9.6,0c-6.4-.06-12.8-.14-19.19-.41-3.61-.15-7.26-.19-10.86-.55A.17.17,0,0,1,151.76,418.54Z" style="fill:#37474f"></path><path d="M129.63,157.8c4.6,16.32,8.82,32.78,13,49.23s8.24,32.92,12.34,49.38q3.08,12.34,6.14,24.7c2,8,4.31,16.07,4.8,24.35s-.56,16.91-1.27,25.29-1.42,16.86-2.16,25.28c-1.48,16.86-2.89,33.73-4.73,50.55-.23,2.1-.45,4.21-.67,6.31,0,.18-.29.18-.28,0,1.12-16.87,2.28-33.73,3.63-50.58q1-12.63,2.06-25.28c.69-8.41,1.67-16.85,1.93-25.28s-1.28-16.67-3.34-24.89q-3-12.09-6.05-24.17Q148.8,238,142.65,213.31c-4.58-18.44-9.14-36.91-13.18-55.47A.08.08,0,0,1,129.63,157.8Z" style="fill:#37474f"></path><path d="M118.3,145.68s16.42,64.4,27.92,109.74l21.91-109.74Z" style="fill:#37474f"></path><path d="M173.66,474.82c-3,.93-89.65-.95-92.81-3.06-1.22-.78,5-82.93,5-82.93l52.6,1.05-2.62,55s32,15.15,35.22,17.84S176.63,473.9,173.66,474.82Z" style="fill:#ad6359"></path><path d="M173.66,474.82c-3,.92-89.65-.95-92.81-3.06-.38-.24-.29-8.36,0-19.45,15.72,2.64,72.69,11.26,77.06,8.69,3-1.79.35-4.59-2.15-6.47,7.16,3.57,13.85,7,15.23,8.16C174.21,465.37,176.62,473.91,173.66,474.82Z" style="fill:#263238"></path><path d="M169.32,145.65s-2.91,36.42-8.92,45.56a91.76,91.76,0,0,0-14.94,7.45s-3.71,97.41-3.64,103.26c.24,21.89-5.35,128.48-5.35,128.48l-54.42-.52S96.14,244.66,99.42,202.25c0,0-2.48-13.54-1.94-20.38,1.3-16.59,8.55-36.2,8.55-36.2Z" style="fill:#263238"></path><path d="M150.17,180.28c.2-1.36.41-2.72.62-4.09.38-2.49.89-5,1.32-7.46,1-5.64,2-11.3,3.29-16.9a.12.12,0,0,1,.24,0c-.22,2.26-.48,4.52-.8,6.76s-.54,4.51-.86,6.76c-.63,4.46-1.25,8.92-2,13.36-.29,1.71-1.36,4.78,1.1,5.31,2,.42,3.38-1.5,4-3.1a37.92,37.92,0,0,0,1.31-6.16c.41-2.25.76-4.51,1.08-6.77.69-4.93,1.46-9.84,2.26-14.75,0-.14.25-.1.24,0a146.78,146.78,0,0,1-1.09,15.11c-.31,2.39-.67,4.79-1.08,7.17a25.12,25.12,0,0,1-1.65,6.69,5.45,5.45,0,0,1-4.07,3.27h-.12a.16.16,0,0,1,.08.14c0,.8,0,1.61-.1,2.41s-.24,1.57-.39,2.35a15.91,15.91,0,0,1-.61,2.35,10.86,10.86,0,0,1-.43,1.07,11.17,11.17,0,0,1-.64,1c-.09.14-.25.06-.26-.08h0c0-.13,0-.26,0-.39a.16.16,0,0,0,0-.07h0a5.58,5.58,0,0,1,0-.7c.06-.38.14-.76.23-1.14.16-.76.37-1.52.58-2.27s.36-1.51.56-2.26.45-1.53.63-2.32a.18.18,0,0,1,.05-.07,3.55,3.55,0,0,1-3.43-2.15A6.15,6.15,0,0,1,150.17,180.28Z" style="fill:#37474f"></path><path d="M141.06,199.85a42.74,42.74,0,0,1,5.12-3.38,49.63,49.63,0,0,1,5.84-3c3.93-1.71,8-2.88,12-4.22.12,0,.2.16.09.21-3.94,1.57-7.71,3.64-11.51,5.5-1.87.92-3.77,1.79-5.67,2.63s-3.81,1.83-5.77,2.55C141.06,200.17,140.94,199.94,141.06,199.85Z" style="fill:#37474f"></path><path d="M115.06,169.44c2.77,0,12.34-.7,15.18-3.87a19.51,19.51,0,0,0,3.54-6.39,59.88,59.88,0,0,0,2.15-7.76c0-.13.22-.09.22,0a30.09,30.09,0,0,1-1.11,8.81c-.67,2.43-1.57,5.15-3.53,6.85s-4.88,2.42-7.52,2.75a34.75,34.75,0,0,1-8.94-.12A.15.15,0,0,1,115.06,169.44Z" style="fill:#37474f"></path><path d="M175.82,170.19c-.85,0-3.36-1.76-3.66-2.22-2.09-3.15-2.6-13.17-2.78-15.8,0-.13-.07-.09-.07,0,0,3,.11,6,.35,8.81a30.9,30.9,0,0,0,1.09,6.85c.64,1.79,4.16,3,5.08,2.62C175.88,170.46,175.88,170.19,175.82,170.19Z" style="fill:#37474f"></path><path d="M84.46,419.34c3.19-.23,6.41-.2,9.61-.24s6.4-.05,9.6,0c6.4.07,12.8.16,19.19.34,1.75.05,3.5.11,5.25.19s3.74.4,5.61.47a.12.12,0,0,1,0,.23c-1.57,0-3.14.25-4.72.29s-3.26.06-4.89.06q-4.8,0-9.6,0c-6.4-.05-12.8-.14-19.19-.4-3.61-.15-7.26-.19-10.86-.56A.16.16,0,0,1,84.46,419.34Z" style="fill:#37474f"></path><path d="M91.1,412.25h0a.66.66,0,0,1-.63-.7l17-210.93c-.16-.92-3.62-12.7-3.93-18.72-.33-6.36,6.25-31.16,6.53-32.21a.67.67,0,0,1,.81-.47.65.65,0,0,1,.47.81c-.06.25-6.8,25.64-6.49,31.8s3.91,18.54,3.93,18.64-17,211.15-17,211.15A.67.67,0,0,1,91.1,412.25Z" style="fill:#37474f"></path><path d="M204.3,45.27s-4.54-5.62-10.06-4.76-6,4.45-9.35,5.23S174.32,46,171,49.58,169.36,60,167.85,62.12s-6.93,2.83-7.85,8c-1.06,6,2.86,9.33,2.89,12.4.05,5.12-3.22,9.49,0,15.27,3.45,6.21,9,5.69,12.85,7.53,3.65,1.76,4.82,8.5,12.76,8.41s9.68-5.23,14.19-7.35,11.38.53,16.11-3.16,2.84-8.39,4-11,5.18-3,6.43-7.54-3-8.29-3.39-10c-.73-3,1.21-4.71.2-8.91s-6.37-6.82-7.48-8c-2.66-2.95-.67-9.64-4.83-12.2A8.63,8.63,0,0,0,204.3,45.27Z" style="fill:#263238"></path><path d="M169.13,53.34c-.2,3.09,0,6.82-3,8.75-4.54,2.58-8.64,6.2-7.25,11.91.52,3.09,3.24,5.45,3.63,8.68a13.91,13.91,0,0,1-.64,3.18,21.58,21.58,0,0,0-.86,6.11,10.4,10.4,0,0,0,1.83,5.84A10.12,10.12,0,0,1,160.57,92a21.89,21.89,0,0,1,.59-6.31c2.14-4.24-2.37-7.12-3.21-11.47-1.13-4.38,1.37-8.93,5.16-11.07,1.72-1.11,3.77-1.82,4.71-3.76.81-1.6,1-4.28,1.31-6Z" style="fill:#263238"></path><path d="M214.69,105c5.49-1.4,8.36-3,8.48-9.13.14-1.18.06-2.69.87-3.69,1.32-1.5,3.14-2.54,4.26-4.11a8.06,8.06,0,0,0,.41-8.57c-.71-1.39-1.63-2.69-2.47-4a37.25,37.25,0,0,1,2.89,3.8,9,9,0,0,1,1.06,7.13c-.67,2.43-2.83,4.12-4.6,5.63-1.37.92-1.32,2.43-1.47,3.93-.31,6.28-3.53,8.35-9.43,9.05Z" style="fill:#263238"></path><path d="M181.23,147l-3.13,20.25L106,145.67s25.33-41.22,46.58-57.24c10.37-7.82,21.39-4.88,26,3.27,1.17,2.06,11.74,28.08,11.17,38.31C189.29,139,181.23,147,181.23,147Z" style="fill:#ebebeb"></path><path d="M163.28,138.72a42.68,42.68,0,0,1,8.07,3.05c1.29.68,2.55,1.44,3.79,2.24.63.39,1.26.76,1.89,1.12a6.41,6.41,0,0,0,2.07.86c.06,0,.05.15,0,.15a11,11,0,0,1-2.05-.33,11.21,11.21,0,0,1-1.9-.79c-1.32-.67-2.61-1.42-3.92-2.11-2.64-1.38-5.28-2.76-8-3.86C163.08,139,163.15,138.69,163.28,138.72Z" style="fill:#263238"></path><path d="M155.92,141.35a44.25,44.25,0,0,1,7,.44,28.76,28.76,0,0,1,3.43.76q.81.22,1.62.48c.59.19,1.16.5,1.75.67.06,0,0,.16,0,.15a16.76,16.76,0,0,0-1.73-.25l-1.72-.3c-1.15-.19-2.31-.36-3.46-.57-2.3-.42-4.59-.8-6.91-1.1C155.75,141.61,155.8,141.36,155.92,141.35Z" style="fill:#263238"></path><path d="M165.08,83.38s-4.58,39.22-6.76,47S137.71,203,137.71,203L90.43,174.61c7-21.67,34.58-59.14,48.69-76S165.08,83.38,165.08,83.38Z" style="fill:#477EFF"></path><path d="M176.8,88.88s5.85,34.93,4,41.9-3.75,77.59-3.75,77.59l12.74-14.07L181.23,147s7.48-6.83,8.6-15.21C191.17,121.76,180.91,91.81,176.8,88.88Z" style="fill:#477EFF"></path><path d="M176.81,88.9c.18,1,5.8,35,4,41.89-.85,3.28-1.28,16.88-2.1,30.07l7.17-36.17-4-10,4-2.19Z" style="opacity:0.1"></path><path d="M158.25,109.31l-5.66,8-1.47,38.43c2.93-10.46,6.19-21.81,7.2-25.4,2.14-7.67,6.61-45.8,6.76-47v0l-11.26,20.06Z" style="opacity:0.1"></path><path d="M177.72,92.84c.46,1.75-3.1,21.22-4.69,21.22-3.38,0-7.34-22.12-6.26-27.53C167,85.42,177.72,92.84,177.72,92.84Z" style="fill:#ad6359"></path><path d="M166.91,85.19c-.62,1.23-1.27,12,3.63,15.75,1.6,1.21,8.57-7.23,8.57-7.23l.66-.5L189,86.13,184.2,71.06l-.76-2.1s-2.38,2.11-5.33,4.76l-.42.37c-.17.15-.33.28-.48.43-.45.38-.9.79-1.34,1.19s-.67.61-1,1-.68.66-1,1A74.1,74.1,0,0,0,166.91,85.19Z" style="fill:#ad6359"></path><path d="M178.11,73.72a23.27,23.27,0,0,0,1.66,19.49L189,86.13,184.2,71.06l-.76-2.1S181.06,71.07,178.11,73.72Z" style="fill:#263238"></path><path d="M212.67,78.45C204,96.85,192,93.71,188,91.83c-3.6-1.71-15.64-8-8.88-27.19s18.07-21,26.51-17.49S221.38,60.05,212.67,78.45Z" style="fill:#ad6359"></path><path d="M210.79,74.07a13.19,13.19,0,0,1-1-1,2.31,2.31,0,0,1-.83-1.21.72.72,0,0,1,.48-.74,1.81,1.81,0,0,1,1.72.6,2.7,2.7,0,0,1,.89,1.68A.77.77,0,0,1,210.79,74.07Z" style="fill:#263238"></path><path d="M197.92,70.71c.43.2.87.32,1.32.48a2.28,2.28,0,0,0,1.44.24.74.74,0,0,0,.47-.75,1.81,1.81,0,0,0-1.28-1.3,2.65,2.65,0,0,0-1.9-.09A.78.78,0,0,0,197.92,70.71Z" style="fill:#263238"></path><path d="M206.34,77.69s.06.11,0,.16c-.74,1.17-1.4,2.63-.56,3.67,0,0,0,.09,0,.06C204.56,80.61,205.45,78.68,206.34,77.69Z" style="fill:#263238"></path><path d="M208.15,77.07c2,1-.13,4.93-2,4S206.47,76.24,208.15,77.07Z" style="fill:#263238"></path><path d="M208.83,77.78c.19.37.3.92.65,1.15s1,0,1.46-.25c.06,0,.07,0,0,.07-.38.76-1.06,1.41-1.86,1.17s-.86-1.14-.64-2C208.53,77.78,208.75,77.63,208.83,77.78Z" style="fill:#263238"></path><path d="M199.18,73.85s-.13,0-.16.06c-.64,1.22-1.58,2.52-2.9,2.31,0,0-.07,0,0,.07C197.53,76.86,198.77,75.12,199.18,73.85Z" style="fill:#263238"></path><path d="M198.81,72c-1.86-1.24-4.21,2.57-2.49,3.72S200.37,73,198.81,72Z" style="fill:#263238"></path><path d="M197.86,71.74c-.42,0-1,.2-1.32,0s-.49-.83-.51-1.39c0,0-.05,0-.09,0-.46.71-.69,1.62-.08,2.19s1.41.19,2-.43C198,72,198,71.74,197.86,71.74Z" style="fill:#263238"></path><path d="M193.37,83.46c.07.46.06,1,.44,1.35a3.71,3.71,0,0,0,1.4.63,0,0,0,0,1,0,.09,1.86,1.86,0,0,1-1.85-.47,1.45,1.45,0,0,1-.13-1.63C193.26,83.35,193.36,83.39,193.37,83.46Z" style="fill:#263238"></path><path d="M194.74,82.74A11.34,11.34,0,0,1,199,85.21c.15.06.51.13.61,0h0S201,82.64,201,82.64c.24.35,1.52,2.07,1.76,1.58,2-4.09,4.19-8.63,5.3-13.12,0-.14-.18-.23-.24-.09-2.06,3.85-3.43,8-5.44,11.94a8.34,8.34,0,0,0-1.58-1.65c-.15,0-1.29,2.81-1.56,3.2a6.64,6.64,0,0,0-4.5-2.06C194,82.37,193.88,82.48,194.74,82.74Z" style="fill:#263238"></path><path d="M178.56,65.6a8.38,8.38,0,0,0,7.72-3.07,22,22,0,0,0,11.45-1c-.35.27-2.86,2.25-4.17,3.21,12.1,5.2,20.95-.8,20.95-.8a22.39,22.39,0,0,1,.12,10s4.5-6.55,4.07-13.25a12.81,12.81,0,0,0-6.88-11,18.33,18.33,0,0,0-17.92-5.39C181.81,47.24,178.56,65.6,178.56,65.6Z" style="fill:#263238"></path><path d="M202.93,68.44a23.89,23.89,0,0,1-6.88-1.67s0,0,0,0a20.25,20.25,0,0,0,11.1.52,19.54,19.54,0,0,0,4.5-1.69,13.33,13.33,0,0,0,4.18-3.14.1.1,0,0,1,.15.12,15.49,15.49,0,0,1-3.69,3.67,14.29,14.29,0,0,1-4.78,2,16.43,16.43,0,0,1-4.59.26" style="fill:#263238"></path><path d="M181.37,67.44s-.63-7.73-3.92-7.82-5,9.56-2.77,12.35a3.44,3.44,0,0,0,4.92.73Z" style="fill:#ad6359"></path><path d="M177,62.4s-.09,0-.06.07c1.56,2,1.53,4.56,1.14,7a1.91,1.91,0,0,0-2.2-1.89c-.07,0-.07.13,0,.15a2.11,2.11,0,0,1,1.63,1.81,10,10,0,0,1,0,2.19c0,.24.37.34.43.08a.11.11,0,0,1,0,0C179.56,69.14,179.66,64.3,177,62.4Z" style="fill:#263238"></path><path d="M148.5,98.49c-11.32,20.1-24.28,54.4-20.93,60.91,8.37,16.3,28.52,33.53,37.92,39.23,5.49,3.33,24.47-24.77,19.74-28-7.46-5-27-22.31-29.35-24.64-1.25-1.24,3-25.56,4.37-41.69C161.71,86.79,154,88.7,148.5,98.49Z" style="fill:#ad6359"></path><path d="M196.15,184.49c3.14-1.61,10.7-.35,15.53-1.38s8.12-6.32,6.72-7.69-3.36-.2-10.72-1.27c-4.72-.7-13.28-6.25-22.07-6.52C181.19,167.49,193,186.11,196.15,184.49Z" style="fill:#ad6359"></path><path d="M196.15,184.49c3.14-1.61,10.7-.35,15.53-1.38s8.12-6.32,6.72-7.69-3.36-.2-10.72-1.27c-4.72-.7-13.28-6.25-22.07-6.52C181.19,167.49,193,186.11,196.15,184.49Z" style="fill:#ad6359"></path><path d="M196.15,184.49c3.14-1.61,10.7-.35,15.53-1.38s8.12-6.32,6.72-7.69-3.36-.2-10.72-1.27c-4.72-.7-13.28-6.25-22.07-6.52C181.19,167.49,193,186.11,196.15,184.49Z" style="opacity:0.1"></path><rect x="179.43" y="159.3" width="11.99" height="66.22" transform="translate(176.7 459.48) rotate(-134.19)" style="fill:#dbdbdb"></rect><polygon points="126.84 236.71 139.48 249.71 139.48 249.71 175.94 214.27 163.31 201.27 163.31 201.27 126.84 236.71" style="fill:#477EFF"></polygon><polygon points="126.84 236.71 139.48 249.71 139.48 249.71 175.94 214.27 163.31 201.27 163.31 201.27 126.84 236.71" style="opacity:0.4"></polygon><path d="M211.45,199.39a4.41,4.41,0,0,1-5,.29,7.89,7.89,0,0,1-1.71,5.09c-2.15,2.45-6.93.17-6.93.17a9.66,9.66,0,0,1-2.66,5.08c-2.28,2.14-7.43.53-7.43.53a9.64,9.64,0,0,1-5.16,3c-6.5,1.2-23.46-18.66-25.94-21.38l20.28-28.69s27.29,10.39,30.63,15.75C210.38,183.74,215,197,211.45,199.39Z" style="fill:#ad6359"></path><path d="M206.53,199.54c-1.85-5.53-5-10.6-8.12-15.46a.1.1,0,1,0-.16.11c3.14,4.8,5.08,10.55,8,15.47A.14.14,0,0,0,206.53,199.54Z" style="fill:#263238"></path><path d="M198.11,204.57a15,15,0,0,0-2.07-3.39c-.82-1.15-1.65-2.28-2.51-3.4q-2.55-3.36-5.29-6.59c-.08-.09-.24,0-.16.11,1.69,2.24,3.36,4.5,5,6.8.8,1.16,1.6,2.32,2.38,3.48a18.16,18.16,0,0,0,2.37,3.2A.2.2,0,0,0,198.11,204.57Z" style="fill:#263238"></path><path d="M187.68,210.45a10.72,10.72,0,0,0-2-2.95c-.8-1-1.6-2-2.38-3-1.58-2-3.16-4.05-4.66-6.13a.1.1,0,0,0-.17.11c1.52,2.12,3,4.26,4.55,6.37.75,1,1.51,2.07,2.28,3.09a9.83,9.83,0,0,0,2.31,2.62A.07.07,0,0,0,187.68,210.45Z" style="fill:#263238"></path><path d="M158.22,200.05l25-33.57-25.71-20.91c1.84-13.18,5.5-39.55,5.4-48.86-.11-10.92-7.7-11.55-13.78-2.23-13.9,21.31-27.71,60.16-26.8,66.46C123.61,170,158.22,200.05,158.22,200.05Z" style="fill:#477EFF"></path><path d="M155.84,191.83c1.15-2.35,7.46-11.16,9.06-13.33s8.29-10.69,9.93-12.92c.09-.12.29,0,.2.1-1.59,2.23-7.63,11.28-9.2,13.47s-8,10.9-9.88,12.76A.07.07,0,0,1,155.84,191.83Z" style="fill:#263238"></path><path d="M161.34,114.06c-.56,9.9-2.2,20.36-3.26,30.23-.05.43-.09.84-.11,1.24a.35.35,0,0,0,0-.13l0,0c5.79,5.35,12.9,10.69,19,15.8l6.27,5.14,0,0,0,0-.7.89.62-1v.07l-6.52-4.83c-6.38-5-13.54-10.09-19.46-15.59a.76.76,0,0,1-.2-.49c0-1.16.18-2.24.31-3.37,1.09-8.94,2.78-19.21,4-28.11Z" style="fill:#263238"></path><path d="M162.14,115.89a11.66,11.66,0,0,1-1.49,4.35c.54-1.41.89-2.95,1.49-4.35Z" style="fill:#263238"></path><path d="M161.34,195.86l-3,4.25-.06.09-.08-.07q-11-9.49-21.33-19.78c-3.4-3.46-6.74-7-9.82-10.77-1.88-2.39-3.89-4.84-5-7.76-.62-1.83.13-3.82.42-5.63a189.92,189.92,0,0,1,8.83-27.74,156.62,156.62,0,0,1,13-26A180,180,0,0,0,132,128.72a204.45,204.45,0,0,0-8.56,27.68c-.25,1.17-.47,2.36-.6,3.52a5.26,5.26,0,0,0,.84,3.18c3.6,6.24,8.84,11.43,13.77,16.66,6.71,7,13.74,13.65,20.86,20.22h-.15l3.2-4.13Z" style="fill:#263238"></path><path d="M142.14,103.62c-.42,1.57-.86,3.1-1.18,4.69a10.22,10.22,0,0,1,1.18-4.69Z" style="fill:#263238"></path><path d="M221.84,175.67a33.48,33.48,0,0,1-4.82-3.58c-.36-.31-.7-.65-1-1s-.61-.62-.9-.93-.43-.43-.62-.64l-8.82-9.92a32.42,32.42,0,0,0,2.55,2.56,29.63,29.63,0,0,0,2.39,1.93c.76.58,1.58,1.13,2.43,1.66,21,12.95,54.51,2.43,74.75-23.48,15.61-20,18.82-43.24,9.83-58.8a31.35,31.35,0,0,0-3.9-5.43L302.52,88s0,0,.07.08c.38.42.75.86,1.1,1.31s.61.77.89,1.17c.13.18.27.36.39.55s.42.62.62.93.23.36.33.55c5.81,9.4,7,21.82,3.5,34.64-.17.66-.36,1.31-.56,2a71.79,71.79,0,0,1-12.27,23C276.35,178.12,242.88,188.63,221.84,175.67Z" style="fill:#37474f"></path><path d="M205,91.35c-20.57,26.34-22.76,57.58-6.94,75.35l8.83,9.89c-15.83-17.74-13.63-49,6.93-75.34,23.75-30.36,63-42.71,87.72-27.53a39.17,39.17,0,0,1,5.64,4.2,42.17,42.17,0,0,1,3,3L301.31,71a38.71,38.71,0,0,0-3-3,38.19,38.19,0,0,0-5.62-4.19C268,48.63,228.71,61,205,91.35Z" style="fill:#37474f"></path><path d="M310.13,80.92a1.73,1.73,0,0,0-.17-.21l-.22-.24-.32-.32c-.18-.2-.37-.4-.56-.59a3,3,0,0,0-.31-.31c-.2-.21-.42-.41-.62-.61s-.51-.48-.78-.73l-1.32-1.12-1.36-1.07c-.29-.2-.56-.41-.85-.6s-.63-.45-1-.66-.76-.5-1.15-.74a44.62,44.62,0,0,0-19.86-6.3c-.89-.07-1.76-.13-2.65-.16s-1.78,0-2.68,0c-.75,0-1.5,0-2.26.07A69.68,69.68,0,0,0,252.85,72c-.46.17-.93.35-1.38.54-.69.27-1.37.55-2.06.86L248,74a85.27,85.27,0,0,0-11.44,6.32c-.88.57-1.75,1.15-2.62,1.77-1,.74-2.09,1.51-3.13,2.3,0,0,0,0,0,0a93,93,0,0,0-11.59,10.52q-2.81,3-5.39,6.31c-.59.74-1.16,1.51-1.71,2.26s-1.1,1.53-1.63,2.29c-.27.39-.53.76-.78,1.15a81.68,81.68,0,0,0-10.11,20.89c-.2.62-.38,1.23-.55,1.84a1.15,1.15,0,0,0-.08.29c-.07.2-.12.4-.17.6-.29,1-.54,2.05-.77,3.09q0,.14-.06.3c-.09.37-.17.74-.24,1.12,0,.14-.05.28-.08.41-.08.37-.14.75-.2,1.12-.1.53-.2,1.06-.26,1.59s-.14.92-.21,1.38c-.17,1.33-.3,2.67-.36,4a2.73,2.73,0,0,0,0,.41c0,.49-.05,1-.06,1.49,0,.23,0,.45,0,.68,0,.41,0,.8,0,1.2,0,.64,0,1.26,0,1.88s.06,1.25.11,1.85.08.95.13,1.42h0c0,.16,0,.33.06.49.06.53.12,1.05.2,1.56,0,.31.08.63.15.94h0c.06.37.12.74.19,1.09.11.55.21,1.11.34,1.64s.26,1.16.41,1.73.32,1.13.49,1.69.33,1,.5,1.55a.34.34,0,0,1,0,.12c.17.46.34.93.53,1.38.07.21.15.41.23.6.18.45.37.9.57,1.34s.39.84.6,1.26c.28.58.58,1.14.89,1.7l.35.64c.13.2.25.41.37.6.37.62.76,1.24,1.18,1.84.08.13.18.26.27.4s.39.58.61.84a1.39,1.39,0,0,0,.15.19c.28.4.59.79.9,1.16l.41.51a.18.18,0,0,0,.05.07l.06.06a1.9,1.9,0,0,0,.19.21l.4.46c-.06-.06-.11-.13-.16-.19a33.12,33.12,0,0,0,2.87,2.94l.28.27a39.57,39.57,0,0,0,5.63,4.19c24.69,15.19,64,2.86,87.71-27.56C323.76,129.92,326,98.67,310.13,80.92ZM296.59,152.2c-20.24,25.92-53.71,36.44-74.75,23.47a32.84,32.84,0,0,1-4.81-3.58,14,14,0,0,1-1-1c-.33-.29-.62-.61-.91-.92a31.86,31.86,0,0,1-4.5-6.06,35.5,35.5,0,0,1-3.27-7.67c-.14-.43-.26-.86-.36-1.28,0,0,0,0,0-.06-.1-.38-.2-.77-.27-1.15s-.23-1-.32-1.53a46.92,46.92,0,0,1-.07-16.05c.08-.58.18-1.16.3-1.75,0-.12.05-.23.06-.35.24-1.17.5-2.32.81-3.49a.89.89,0,0,1,0-.14c.15-.54.3-1.09.47-1.64.22-.76.46-1.52.71-2.27.2-.58.4-1.16.61-1.73s.37-1,.57-1.48l.3-.74c.45-1.1.94-2.2,1.46-3.31.27-.57.55-1.15.84-1.71a76.94,76.94,0,0,1,8-12.45,80.9,80.9,0,0,1,6.93-7.78c.17-.18.34-.35.52-.52.57-.56,1.16-1.11,1.74-1.63.26-.24.51-.48.78-.7s.68-.61,1-.9c.82-.72,1.65-1.41,2.5-2.07.41-.34.81-.65,1.23-1s.83-.63,1.26-.93l.05,0c.82-.6,1.65-1.18,2.49-1.73.42-.29.85-.57,1.29-.85s.86-.55,1.29-.82l1.31-.79,1.32-.75A67.85,67.85,0,0,1,261.32,78c.33-.09.65-.17,1-.24,1-.23,2-.43,2.95-.59.65-.12,1.3-.22,1.95-.31s1.3-.16,1.94-.23,1.3-.13,1.94-.16,1.23-.07,1.83-.09,1.41,0,2.09,0,1.15,0,1.72.05c.33,0,.67,0,1,.06l.92.08q1.39.13,2.76.36c.6.09,1.2.19,1.8.32l.5.11c.24,0,.49.09.73.15l.55.14c1,.25,2,.54,2.93.88.33.1.66.21,1,.33l.08,0c.32.11.65.24,1,.38l1,.4a35.67,35.67,0,0,1,4.24,2.23c.85.51,1.67,1.06,2.44,1.63s1.62,1.24,2.38,1.93,1.32,1.23,1.94,1.89l.6.67a.2.2,0,0,1,.06.09c.39.42.76.86,1.11,1.31s.61.76.89,1.16c.13.19.27.37.39.55s.43.62.62.93l.33.54c5.81,9.4,7,21.82,3.51,34.65-.18.67-.37,1.31-.57,2A71.9,71.9,0,0,1,296.59,152.2Z" style="fill:#455a64"></path><path d="M213,165.77c-.85-.53-1.67-1.08-2.43-1.66-9-15.55-5.79-38.82,9.81-58.79,20.24-25.91,53.72-36.41,74.78-23.48a28.53,28.53,0,0,1,2.42,1.65c9,15.56,5.78,38.83-9.83,58.8C267.52,168.2,234.05,178.72,213,165.77Z" style="fill:#fff;opacity:0.4"></path><g style="opacity:0.30000000000000004"><path d="M301.91,111.1l-68-19.38a77.2,77.2,0,0,1,10.24-6.9l58.38,16.64A48.88,48.88,0,0,1,301.91,111.1Z" style="fill:#ebebeb"></path><path d="M300.14,89,261.32,78c12.24-3,24.32-2,33.85,3.89a28.53,28.53,0,0,1,2.42,1.65A32.21,32.21,0,0,1,300.14,89Z" style="fill:#ebebeb"></path><path d="M300.31,118.33l-73-20.8c1.33-1.3,2.69-2.56,4.07-3.74l70.07,20C301.13,115.27,300.76,116.79,300.31,118.33Z" style="fill:#ebebeb"></path><path d="M256.11,166.61a62.37,62.37,0,0,1-7.82,2.69l-40.56-11.56a36,36,0,0,1-1.39-5.31Z" style="fill:#ebebeb"></path><path d="M274.39,155.79l-68.12-19.41a62.34,62.34,0,0,1,6.17-18.61l77.21,22c-.61.84-1.24,1.69-1.89,2.53A80.25,80.25,0,0,1,274.39,155.79Z" style="fill:#ebebeb"></path></g></g></svg>
